<?xml version="1.0" standalone="no"?><!DOCTYPE svg PUBLIC "-//W3C//DTD SVG 1.1//EN" "http://www.w3.org/Graphics/SVG/1.1/DTD/svg11.dtd"><svg t="1621754809510" class="icon" viewBox="0 0 1024 1024" version="1.1" xmlns="http://www.w3.org/2000/svg" p-id="6294" xmlns:xlink="http://www.w3.org/1999/xlink" width="32" height="32"><defs><style type="text/css"></style></defs><path d="M485.052632 34.169263a53.894737 53.894737 0 0 1 53.894736 0l373.382737 215.578948a53.894737 53.894737 0 0 1 26.947369 46.672842v431.157894a53.894737 53.894737 0 0 1-26.947369 46.672842l-373.382737 215.578948a53.894737 53.894737 0 0 1-53.894736 0l-373.382737-215.578948a53.894737 53.894737 0 0 1-26.947369-46.672842v-431.157894a53.894737 53.894737 0 0 1 26.947369-46.672842l373.382737-215.578948z m26.947368 108.867369L192.512 327.572211v368.963368L512 880.909474l319.488-184.42779V327.518316L512 143.090526z" fill="#2c2c2c" p-id="6295"></path><path d="M140.126316 242.957474l414.827789 239.50821-47.912421 82.997895L92.16 325.955368z" fill="#2c2c2c" p-id="6296"></path><path d="M468.992 482.465684l373.436632-215.578947 47.912421 82.997895-373.436632 215.578947z" fill="#2c2c2c" p-id="6297"></path><path d="M458.105263 918.905263v-436.547368h107.789474v436.547368z" fill="#2c2c2c" p-id="6298"></path></svg>